<svg width="36" height="40" viewBox="0 0 36 40" fill="none" xmlns="http://www.w3.org/2000/svg" xmlns:xlink="http://www.w3.org/1999/xlink">
<path d="M2.222,29.747C2.222,19.038 10.755,15.023 17.866,15.023C24.977,15.023 33.51,19.038 33.51,29.746C33.51,37.778 23.555,37.778 17.866,37.778C12.177,37.778 2.222,37.778 2.222,29.747Z" fill="#FFFFFF"/>
<path d="M6.016,16.613C9.513,13.902 13.938,12.801 17.866,12.801C21.795,12.801 26.219,13.902 29.716,16.613C33.294,19.386 35.732,23.722 35.732,29.746C35.732,32.258 34.936,34.309 33.513,35.881C32.135,37.404 30.309,38.322 28.487,38.894C24.96,40.001 20.77,40 17.998,40C17.954,40 17.91,40 17.866,40C17.823,40 17.779,40 17.734,40C14.963,40 10.773,40.001 7.246,38.894C5.423,38.322 3.598,37.404 2.219,35.881C0.796,34.309 0,32.258 0,29.746C0,23.722 2.438,19.386 6.016,16.613ZM8.739,20.125C6.273,22.037 4.444,25.063 4.444,29.746C4.444,31.251 4.892,32.211 5.514,32.898C6.18,33.634 7.199,34.221 8.576,34.654C11.392,35.537 14.947,35.556 17.866,35.556C20.786,35.556 24.34,35.537 27.156,34.654C28.534,34.221 29.553,33.634 30.218,32.898C30.84,32.211 31.288,31.25 31.288,29.746C31.288,25.063 29.46,22.037 26.994,20.125C24.446,18.151 21.049,17.245 17.866,17.245C14.684,17.245 11.286,18.151 8.739,20.125Z" clip-rule="evenodd" fill-rule="evenodd" fill="#52C1FF"/>
<path d="M17.866,10.133C10.566,10.133 5.329,13.636 3.793,15.171C2.926,16.039 1.519,16.039 0.651,15.171C-0.217,14.303 -0.217,12.896 0.651,12.028C2.908,9.771 9.238,5.689 17.866,5.689C26.494,5.689 32.824,9.771 35.082,12.028C35.949,12.896 35.949,14.303 35.082,15.171C34.214,16.039 32.807,16.039 31.939,15.171C30.404,13.636 25.167,10.133 17.866,10.133Z" clip-rule="evenodd" fill-rule="evenodd" fill="#52C1FF"/>
<path d="M12.178,0C13.405,0 14.4,0.995 14.4,2.222C14.4,2.815 14.596,3.753 15.119,4.479C15.56,5.092 16.315,5.689 17.867,5.689C19.418,5.689 20.173,5.092 20.614,4.479C21.137,3.753 21.333,2.815 21.333,2.222C21.333,0.995 22.328,0 23.555,0C24.783,0 25.777,0.995 25.777,2.222C25.777,3.526 25.405,5.432 24.221,7.076C22.956,8.833 20.866,10.133 17.867,10.133C14.867,10.133 12.777,8.833 11.512,7.076C10.328,5.432 9.956,3.526 9.956,2.222C9.956,0.995 10.951,0 12.178,0Z" clip-rule="evenodd" fill-rule="evenodd" fill="#52C1FF"/>
</svg>
