<svg width="40" height="40" viewBox="0 0 40 40" fill="none" xmlns="http://www.w3.org/2000/svg" xmlns:xlink="http://www.w3.org/1999/xlink">
<path d="M2.157,19.262C2.157,8.406 6.618,3.754 8.105,2.203L31.895,2.203C33.382,3.754 37.843,8.406 37.843,19.262C37.843,31.669 26.127,36.246 20.179,37.796C14.232,36.246 2.157,31.669 2.157,19.262Z" fill="#FFFFFF"/>
<path d="M6.563,0.662C6.969,0.239 7.525,0 8.105,0L31.895,0C32.475,0 33.031,0.239 33.437,0.662C34.235,1.494 35.912,3.244 37.364,6.275C38.816,9.302 40,13.512 40,19.262C40,26.299 36.632,31.141 32.558,34.345C28.55,37.498 23.809,39.123 20.713,39.931C20.363,40.022 19.996,40.022 19.646,39.931C16.56,39.126 11.736,37.505 7.641,34.361C3.485,31.169 0,26.327 0,19.262C0,13.512 1.184,9.302 2.636,6.275C4.088,3.244 5.765,1.494 6.563,0.662ZM9.03,4.405C8.32,5.201 7.374,6.411 6.511,8.211C5.36,10.612 4.315,14.156 4.315,19.262C4.315,24.605 6.867,28.255 10.235,30.84C13.457,33.314 17.347,34.737 20.179,35.519C22.992,34.739 26.791,33.321 29.925,30.856C33.196,28.283 35.685,24.633 35.685,19.262C35.685,14.156 34.64,10.612 33.489,8.211C32.626,6.411 31.68,5.201 30.97,4.405L9.03,4.405Z" clip-rule="evenodd" fill-rule="evenodd" fill="#52C1FF"/>
<path d="M20,22.297C23.315,22.297 26.002,19.553 26.002,16.169C26.002,12.785 23.315,10.041 20,10.041C16.686,10.041 13.999,12.785 13.999,16.169C13.999,19.553 16.686,22.297 20,22.297Z" fill="#FFFFFF"/>
<path d="M20,12.244C17.877,12.244 16.156,14.001 16.156,16.169C16.156,18.337 17.877,20.094 20,20.094C22.124,20.094 23.845,18.337 23.845,16.169C23.845,14.001 22.124,12.244 20,12.244ZM11.841,16.169C11.841,11.568 15.494,7.838 20,7.838C24.507,7.838 28.16,11.568 28.16,16.169C28.16,20.77 24.507,24.5 20,24.5C15.494,24.5 11.841,20.77 11.841,16.169Z" clip-rule="evenodd" fill-rule="evenodd" fill="#52C1FF"/>
<path d="M30.023,33.494C26.628,35.813 22.83,37.106 20.179,37.797C17.49,37.096 13.55,35.777 10.039,33.396C10.691,32.407 11.485,31.512 12.403,30.747C14.547,28.958 17.23,27.98 19.999,27.98C22.768,27.98 25.452,28.958 27.596,30.747C28.543,31.538 29.359,32.465 30.023,33.494Z" fill="#FFFFFF"/>
<path d="M19.999,30.183C17.728,30.183 15.527,30.985 13.768,32.452C13.621,32.575 13.477,32.702 13.338,32.833C15.748,34.13 18.221,34.979 20.178,35.52C22.082,34.992 24.447,34.17 26.754,32.921C26.585,32.759 26.411,32.603 26.231,32.452C24.472,30.985 22.271,30.183 19.999,30.183ZM11.038,29.041C13.567,26.931 16.733,25.778 19.999,25.778C23.266,25.778 26.432,26.931 28.961,29.041C30.079,29.974 31.042,31.069 31.825,32.282C32.477,33.293 32.208,34.651 31.223,35.324C27.543,37.839 23.483,39.209 20.713,39.932C20.362,40.023 19.995,40.023 19.645,39.932C16.846,39.202 12.643,37.806 8.846,35.231C8.367,34.906 8.035,34.401 7.923,33.826C7.811,33.25 7.929,32.653 8.249,32.167C9.018,30.999 9.955,29.945 11.038,29.041Z" clip-rule="evenodd" fill-rule="evenodd" fill="#52C1FF"/>
</svg>
