<svg width="30" height="28" viewBox="0 0 30 28" fill="none" xmlns="http://www.w3.org/2000/svg" xmlns:xlink="http://www.w3.org/1999/xlink">
<path d="M2.005,22.296C2.219,24.216 3.754,25.75 5.673,25.972C7.842,26.223 10.082,26.47 12.375,26.47C14.667,26.47 16.908,26.223 19.077,25.972C20.996,25.75 22.53,24.216 22.745,22.296C22.986,20.138 23.218,17.908 23.218,15.627C23.218,13.345 22.986,11.115 22.745,8.957C22.53,7.037 20.996,5.503 19.077,5.281C16.908,5.03 14.667,4.783 12.375,4.783C10.082,4.783 7.842,5.03 5.673,5.281C3.754,5.503 2.219,7.037 2.005,8.957C1.764,11.115 1.531,13.345 1.531,15.627C1.531,17.908 1.764,20.138 2.005,22.296Z" fill="#F8F8F8"/>
<path d="M10.847,6.319C11.675,6.281 12.316,5.58 12.278,4.753C12.241,3.925 11.54,3.284 10.712,3.322L10.847,6.319ZM24.667,17.61C24.708,16.783 24.071,16.078 23.244,16.037C22.416,15.995 21.712,16.632 21.67,17.46L24.667,17.61ZM5.673,5.281L5.845,6.771L5.673,5.281ZM5.673,25.972L5.501,27.462L5.673,25.972ZM12.375,24.97C10.18,24.97 8.019,24.733 5.845,24.482L5.501,27.462C7.664,27.712 9.985,27.97 12.375,27.97L12.375,24.97ZM18.904,24.482C16.731,24.733 14.57,24.97 12.375,24.97L12.375,27.97C14.765,27.97 17.086,27.712 19.249,27.462L18.904,24.482ZM0.514,8.791C0.273,10.947 0.031,13.252 0.031,15.627L3.031,15.627C3.031,13.438 3.254,11.283 3.496,9.124L0.514,8.791ZM0.031,15.627C0.031,18.001 0.273,20.306 0.514,22.463L3.496,22.13C3.254,19.97 3.031,17.815 3.031,15.627L0.031,15.627ZM5.845,6.771C7.51,6.579 9.168,6.394 10.847,6.319L10.712,3.322C8.915,3.403 7.162,3.599 5.501,3.791L5.845,6.771ZM24.235,22.463C24.409,20.909 24.583,19.28 24.667,17.61L21.67,17.46C21.592,19.029 21.427,20.578 21.254,22.13L24.235,22.463ZM3.496,9.124C3.632,7.901 4.617,6.913 5.845,6.771L5.501,3.791C2.891,4.093 0.807,6.173 0.514,8.791L3.496,9.124ZM19.249,27.462C21.859,27.16 23.943,25.08 24.235,22.463L21.254,22.13C21.117,23.352 20.132,24.34 18.904,24.482L19.249,27.462ZM5.845,24.482C4.617,24.34 3.632,23.352 3.496,22.13L0.514,22.463C0.807,25.08 2.891,27.16 5.501,27.462L5.845,24.482Z" fill="#52C1FF"/>
<path d="M20.861,2.571L12.592,10.981L11.071,15.757C10.826,16.526 11.545,17.253 12.316,17.017L17.202,15.523L25.675,7.467C27.083,6.129 27.102,3.891 25.717,2.53C24.365,1.2 22.19,1.219 20.861,2.571Z" transform="rotate(0 19.636 8.592)" fill="#F8F8F8" stroke="#52C1FF" stroke-width="1.5" stroke-miterlimit="3.999327" stroke-linecap="round" stroke-linejoin="round"/>
</svg>
