<svg width="42" height="42" viewBox="0 0 42 42" fill="none" xmlns="http://www.w3.org/2000/svg" xmlns:xlink="http://www.w3.org/1999/xlink">
<path d="M2.172,9.438C2.227,8.895 2.867,8.762 3.162,9.211L8.103,16.729C9.468,18.807 12.441,18.621 13.563,16.387L20.83,1.925C20.961,1.664 21.219,1.5 21.5,1.5C21.781,1.5 22.039,1.664 22.17,1.925L29.437,16.387C30.559,18.621 33.532,18.807 34.897,16.729L39.838,9.211C40.133,8.762 40.773,8.895 40.828,9.438C41.193,13.02 41.5,16.698 41.5,20.447C41.5,24.197 41.193,27.875 40.828,31.457C40.335,36.31 36.627,40.213 32.019,40.754C28.597,41.155 25.083,41.5 21.5,41.5C17.917,41.5 14.403,41.155 10.981,40.754C6.373,40.213 2.665,36.31 2.172,31.457C1.807,27.875 1.5,24.197 1.5,20.447C1.5,16.698 1.807,13.02 2.172,9.438Z" fill="#FFFFFF"/>
<path d="M20,6.234L14.808,16.509C13.054,19.98 8.41,20.269 6.276,17.04L4.458,14.289C4.352,15.874 4.286,17.465 4.286,19.065C4.286,22.272 4.55,25.443 4.873,28.602C5.206,31.859 7.725,34.501 10.845,34.865C13.882,35.219 16.924,35.514 20,35.514C23.076,35.514 26.118,35.219 29.155,34.865C32.275,34.501 34.794,31.859 35.127,28.602C35.45,25.443 35.714,22.272 35.714,19.065C35.714,17.465 35.648,15.874 35.542,14.289L33.724,17.04C31.59,20.269 26.946,19.98 25.192,16.509L20,6.234ZM17.507,1.572C17.996,0.605 18.955,0 20,0C21.045,0 22.004,0.605 22.493,1.572L28.981,14.412C29.231,14.908 29.895,14.949 30.2,14.488L34.611,7.813C35.246,6.852 36.331,6.444 37.335,6.664C38.375,6.892 39.259,7.79 39.388,9.052C39.716,12.254 40,15.614 40,19.065C40,22.516 39.716,25.877 39.388,29.079C38.84,34.439 34.738,38.727 29.63,39.323C26.556,39.682 23.322,40 20,40C16.678,40 13.444,39.682 10.37,39.323C5.262,38.727 1.16,34.439 0.612,29.079C0.284,25.877 0,22.516 0,19.065C0,15.614 0.284,12.254 0.612,9.052C0.741,7.79 1.625,6.892 2.665,6.664C3.669,6.444 4.754,6.852 5.389,7.813L3.627,9.089L5.389,7.813L9.8,14.488C10.105,14.949 10.769,14.908 11.019,14.412L17.507,1.572L19.402,2.62L19.445,2.644M17.507,1.572L19.402,2.62Z" clip-rule="evenodd" fill-rule="evenodd" fill="#52C1FF"/>
</svg>
