<svg width="46" height="44" viewBox="0 0 46 44" fill="none" xmlns="http://www.w3.org/2000/svg" xmlns:xlink="http://www.w3.org/1999/xlink">
<path d="M10.832,3.236C11.937,3.236 12.832,4.132 12.832,5.236L12.832,9.553C12.832,10.658 11.937,11.553 10.832,11.553C9.727,11.553 8.832,10.658 8.832,9.553L8.832,5.236C8.832,4.132 9.727,3.236 10.832,3.236Z" clip-rule="evenodd" fill-rule="evenodd" fill="#52C1FF"/>
<path d="M22.073,0C23.178,0 24.073,0.895 24.073,2L24.073,9.555C24.073,10.659 23.178,11.555 22.073,11.555C20.969,11.555 20.073,10.659 20.073,9.555L20.073,2C20.073,0.895 20.969,0 22.073,0Z" clip-rule="evenodd" fill-rule="evenodd" fill="#52C1FF"/>
<path d="M33.314,3.236C34.419,3.236 35.314,4.132 35.314,5.236L35.314,9.553C35.314,10.658 34.419,11.553 33.314,11.553C32.21,11.553 31.314,10.658 31.314,9.553L31.314,5.236C31.314,4.132 32.21,3.236 33.314,3.236Z" clip-rule="evenodd" fill-rule="evenodd" fill="#52C1FF"/>
<path d="M3.235,40.277C3.437,41.257 4.276,42 5.277,42L38.869,42C39.87,42 40.708,41.257 40.916,40.278C41.455,37.745 42.146,36.395 42.146,29.576C42.146,22.757 41.455,21.408 40.916,18.875C40.708,17.896 39.87,17.152 38.869,17.152L5.277,17.152C4.276,17.152 3.437,17.895 3.235,18.876C2.695,21.488 2,23.004 2,29.576C2,36.149 2.695,37.665 3.235,40.277Z" fill="#FFFFFF"/>
<path d="M5.257,19.166C5.232,19.187 5.204,19.227 5.193,19.28C5.073,19.862 4.962,20.333 4.857,20.778C4.688,21.49 4.536,22.132 4.391,23.053C4.17,24.448 4,26.36 4,29.576C4,32.792 4.17,34.705 4.391,36.1C4.536,37.02 4.688,37.663 4.857,38.375C4.962,38.819 5.073,39.29 5.193,39.873C5.204,39.926 5.232,39.965 5.257,39.987C5.268,39.996 5.275,39.999 5.277,40L38.869,40C38.871,39.999 38.879,39.996 38.89,39.986C38.918,39.963 38.948,39.92 38.96,39.862C39.082,39.288 39.194,38.834 39.298,38.409C39.465,37.729 39.614,37.124 39.758,36.219C39.976,34.851 40.146,32.921 40.146,29.576C40.146,26.231 39.976,24.302 39.758,22.933C39.614,22.029 39.465,21.423 39.298,20.744C39.194,20.319 39.082,19.865 38.96,19.291C38.948,19.233 38.918,19.19 38.89,19.167C38.879,19.157 38.871,19.153 38.869,19.152L5.277,19.152C5.275,19.153 5.268,19.157 5.257,19.166ZM1.276,18.471C1.653,16.645 3.245,15.152 5.277,15.152L38.869,15.152C40.905,15.152 42.487,16.647 42.872,18.459C42.945,18.802 43.034,19.168 43.129,19.561C43.323,20.361 43.543,21.269 43.708,22.303C43.971,23.948 44.146,26.102 44.146,29.576C44.146,33.05 43.971,35.205 43.708,36.849C43.543,37.884 43.323,38.792 43.129,39.591C43.034,39.984 42.945,40.351 42.872,40.694C42.487,42.505 40.905,44 38.869,44L5.277,44C3.245,44 1.653,42.508 1.276,40.681C1.2,40.314 1.109,39.924 1.012,39.509C0.819,38.684 0.604,37.761 0.44,36.724C0.177,35.064 0,32.933 0,29.576C0,26.22 0.177,24.088 0.44,22.429C0.603,21.391 0.819,20.468 1.012,19.644C1.109,19.228 1.2,18.838 1.276,18.471Z" clip-rule="evenodd" fill-rule="evenodd" fill="#52C1FF"/>
<circle cx="22.073" cy="29.575" r="4.818" fill="#FFFFFF"/>
<path d="M22.073,26.758C20.517,26.758 19.255,28.019 19.255,29.575C19.255,31.131 20.517,32.393 22.073,32.393C23.629,32.393 24.89,31.131 24.89,29.575C24.89,28.019 23.629,26.758 22.073,26.758ZM15.255,29.575C15.255,25.81 18.308,22.758 22.073,22.758C25.838,22.758 28.89,25.81 28.89,29.575C28.89,33.341 25.838,36.393 22.073,36.393C18.308,36.393 15.255,33.341 15.255,29.575Z" clip-rule="evenodd" fill-rule="evenodd" fill="#52C1FF"/>
</svg>
