<svg width="40" height="40" viewBox="0 0 40 40" fill="none" xmlns="http://www.w3.org/2000/svg" xmlns:xlink="http://www.w3.org/1999/xlink">
<path d="M20,38.182C31.637,38.182 38.182,31.636 38.182,20C38.182,8.364 31.637,1.818 20,1.818C8.364,1.818 1.818,8.364 1.818,20C1.818,31.636 8.364,38.182 20,38.182Z" fill="#FFFFFF"/>
<path d="M7.831,7.831C5.173,10.489 3.636,14.516 3.636,20C3.636,25.484 5.173,29.511 7.831,32.169C10.489,34.827 14.516,36.364 20,36.364C25.484,36.364 29.511,34.827 32.169,32.169C34.827,29.511 36.364,25.484 36.364,20C36.364,14.516 34.827,10.489 32.169,7.831C29.511,5.173 25.484,3.636 20,3.636C14.516,3.636 10.489,5.173 7.831,7.831ZM5.26,5.26C8.784,1.736 13.847,0 20,0C26.153,0 31.217,1.736 34.74,5.26C38.264,8.784 40,13.847 40,20C40,26.153 38.264,31.217 34.74,34.74C31.217,38.264 26.153,40 20,40C13.847,40 8.784,38.264 5.26,34.74C1.736,31.217 0,26.153 0,20C0,13.847 1.736,8.784 5.26,5.26Z" clip-rule="evenodd" fill-rule="evenodd" fill="#52C1FF"/>
<path d="M17.818,23.171L17.818,22.473C17.818,21.484 18.012,20.669 18.4,20.029C18.807,19.389 19.457,18.856 20.349,18.429L20.843,18.196C21.716,17.789 22.385,17.353 22.851,16.887C23.316,16.422 23.549,15.801 23.549,15.025C23.549,14.463 23.403,13.988 23.113,13.6C22.841,13.193 22.453,12.882 21.949,12.669C21.445,12.456 20.853,12.349 20.174,12.349C19.476,12.349 18.846,12.465 18.283,12.698C17.74,12.931 17.304,13.28 16.974,13.745C16.664,14.211 16.509,14.793 16.509,15.491L16.509,16.131L12.727,16.131L12.727,15.549C12.727,14.211 13.057,13.057 13.716,12.087C14.376,11.118 15.268,10.381 16.393,9.876C17.517,9.353 18.778,9.091 20.174,9.091C21.551,9.091 22.773,9.343 23.84,9.847C24.926,10.351 25.779,11.05 26.4,11.942C27.02,12.834 27.331,13.862 27.331,15.025C27.331,16.189 27.117,17.149 26.691,17.905C26.264,18.642 25.721,19.244 25.062,19.709C24.422,20.155 23.762,20.543 23.083,20.873L22.589,21.105C22.24,21.261 21.997,21.455 21.862,21.687C21.726,21.901 21.658,22.221 21.658,22.647L21.658,23.171L17.818,23.171ZM19.854,30.269C19.079,30.269 18.419,30.017 17.876,29.513C17.353,28.989 17.091,28.32 17.091,27.505C17.091,26.691 17.353,26.031 17.876,25.527C18.419,25.004 19.079,24.742 19.854,24.742C20.649,24.742 21.309,25.004 21.833,25.527C22.356,26.031 22.618,26.691 22.618,27.505C22.618,28.32 22.356,28.989 21.833,29.513C21.309,30.017 20.649,30.269 19.854,30.269Z" fill="#52C1FF"/>
</svg>
