<svg width="40" height="40" viewBox="0 0 40 40" fill="none" xmlns="http://www.w3.org/2000/svg" xmlns:xlink="http://www.w3.org/1999/xlink">
<path d="M2.651,22.377C2.428,19.683 2.223,16.906 2.223,14.069C2.223,11.876 2.345,9.064 2.504,6.953L18.561,6.953L18.561,27.91C16.752,28.176 14.897,28.401 13.006,28.401C11.939,28.401 10.883,28.33 9.841,28.22C9.188,28.151 8.541,28.066 7.899,27.975C5.081,27.575 2.887,25.214 2.651,22.377Z" fill="#FFFFFF"/>
<path d="M13.006,12.658C19.768,12.658 23.572,10.78 23.572,7.441C23.572,6.644 23.356,5.93 22.934,5.306C21.588,3.313 18.154,2.224 13.006,2.224C6.243,2.224 2.44,4.102 2.44,7.441C2.44,10.098 4.848,11.829 9.24,12.426C10.367,12.579 11.625,12.658 13.006,12.658Z" fill="#FFFFFF"/>
<path d="M2.671,4.736C3.895,4.828 4.812,5.895 4.72,7.119C4.564,9.183 4.445,11.939 4.445,14.068C4.445,16.806 4.642,19.504 4.866,22.192C5.017,24.012 6.437,25.521 8.211,25.773C8.725,25.846 9.236,25.914 9.745,25.972C10.965,26.111 11.841,27.212 11.702,28.431C11.563,29.651 10.462,30.527 9.242,30.388C8.681,30.324 8.128,30.251 7.586,30.174C3.724,29.626 0.757,26.413 0.436,22.56C0.212,19.859 0,17.004 0,14.068C0,11.81 0.125,8.942 0.288,6.785C0.38,5.561 1.447,4.644 2.671,4.736Z" clip-rule="evenodd" fill-rule="evenodd" fill="#52C1FF"/>
<path d="M1.952,13.572C3.17,13.422 4.279,14.289 4.428,15.507C4.556,16.546 6.001,18.169 8.823,18.387C10.047,18.481 10.963,19.549 10.868,20.773C10.774,21.997 9.706,22.912 8.482,22.818C4.516,22.513 0.504,20.02 0.017,16.048C-0.133,14.83 0.734,13.721 1.952,13.572Z" clip-rule="evenodd" fill-rule="evenodd" fill="#52C1FF"/>
<path d="M6.17,5.572C4.917,6.19 4.662,6.831 4.662,7.439C4.662,7.977 4.856,8.438 5.502,8.909C6.237,9.445 7.528,9.949 9.539,10.222C10.755,10.387 11.607,11.507 11.442,12.724C11.276,13.94 10.157,14.792 8.94,14.627C6.559,14.303 4.45,13.643 2.883,12.5C1.226,11.292 0.217,9.558 0.217,7.439C0.217,4.708 1.863,2.741 4.203,1.586C6.44,0.481 9.476,0 13.005,0C15.716,0 18.103,0.284 20.058,0.894C21.993,1.498 23.715,2.491 24.775,4.06C25.462,5.078 25.194,6.459 24.177,7.146C23.16,7.833 21.778,7.565 21.091,6.548C20.806,6.125 20.138,5.576 18.733,5.137C17.348,4.705 15.444,4.445 13.005,4.445C9.773,4.445 7.525,4.903 6.17,5.572Z" clip-rule="evenodd" fill-rule="evenodd" fill="#52C1FF"/>
<path d="M21.752,37.353C23.418,37.59 25.124,37.779 26.859,37.779C28.594,37.779 30.299,37.59 31.966,37.353C34.784,36.953 36.978,34.592 37.213,31.755C37.437,29.061 37.642,26.284 37.642,23.447C37.642,21.027 37.493,18.65 37.31,16.331L16.357,16.331C16.198,18.442 16.075,21.254 16.075,23.447C16.075,26.284 16.28,29.061 16.504,31.755C16.74,34.592 18.934,36.953 21.752,37.353Z" fill="#FFFFFF"/>
<path d="M14.14,16.163C14.228,15.003 15.194,14.107 16.356,14.107L37.31,14.107C38.469,14.107 39.434,14.999 39.525,16.155C39.71,18.494 39.864,20.938 39.864,23.445C39.864,26.382 39.652,29.237 39.428,31.938C39.107,35.791 36.139,39.003 32.278,39.552C30.573,39.794 28.748,40 26.858,40C24.969,40 23.143,39.794 21.439,39.552C17.577,39.003 14.609,35.791 14.289,31.938C14.065,29.237 13.853,26.382 13.853,23.445C13.853,21.188 13.978,18.32 14.14,16.163ZM18.442,18.552C18.355,20.192 18.297,21.969 18.297,23.445C18.297,26.184 18.495,28.882 18.719,31.57C18.87,33.39 20.289,34.899 22.064,35.151C23.693,35.382 25.278,35.555 26.858,35.555C28.439,35.555 30.024,35.382 31.653,35.151C33.427,34.899 34.847,33.39 34.998,31.57C35.222,28.882 35.419,26.184 35.419,23.445C35.419,21.804 35.348,20.174 35.243,18.552L18.442,18.552Z" clip-rule="evenodd" fill-rule="evenodd" fill="#52C1FF"/>
<path d="M37.913,22.95C39.131,23.099 39.997,24.208 39.848,25.426C39.36,29.397 35.349,31.891 31.382,32.196C29.925,32.308 28.41,32.392 26.859,32.392C25.307,32.392 23.792,32.308 22.335,32.196C18.368,31.891 14.357,29.397 13.869,25.426C13.72,24.208 14.586,23.099 15.805,22.95C17.023,22.8 18.132,23.667 18.281,24.885C18.409,25.924 19.854,27.547 22.676,27.765C24.071,27.872 25.463,27.947 26.859,27.947C28.255,27.947 29.646,27.872 31.042,27.765C33.864,27.547 35.309,25.924 35.436,24.885C35.585,23.667 36.694,22.8 37.913,22.95Z" clip-rule="evenodd" fill-rule="evenodd" fill="#52C1FF"/>
<path d="M26.858,22.035C33.621,22.035 37.425,20.157 37.425,16.819C37.425,13.48 33.621,11.602 26.858,11.602C20.096,11.602 16.292,13.48 16.292,16.819C16.292,20.157 20.096,22.035 26.858,22.035Z" fill="#FFFFFF"/>
<path d="M20.025,14.949C18.772,15.568 18.516,16.209 18.516,16.817C18.516,17.425 18.772,18.066 20.025,18.685C21.38,19.354 23.627,19.811 26.86,19.811C30.093,19.811 32.34,19.354 33.695,18.685C34.948,18.066 35.204,17.425 35.204,16.817C35.204,16.209 34.948,15.568 33.695,14.949C32.34,14.28 30.093,13.823 26.86,13.823C23.627,13.823 21.38,14.28 20.025,14.949ZM18.057,10.964C20.295,9.859 23.33,9.378 26.86,9.378C30.39,9.378 33.425,9.859 35.663,10.964C38.003,12.119 39.649,14.086 39.649,16.817C39.649,19.548 38.003,21.515 35.663,22.67C33.425,23.775 30.39,24.256 26.86,24.256C23.33,24.256 20.295,23.775 18.057,22.67C15.717,21.515 14.071,19.548 14.071,16.817C14.071,14.086 15.717,12.119 18.057,10.964Z" clip-rule="evenodd" fill-rule="evenodd" fill="#52C1FF"/>
</svg>
