<svg width="40" height="40" viewBox="0 0 40 40" fill="none" xmlns="http://www.w3.org/2000/svg" xmlns:xlink="http://www.w3.org/1999/xlink">
<path d="M2.143,0C3.326,0 4.286,0.959 4.286,2.143L4.286,32.143C4.286,34.115 5.885,35.714 7.857,35.714L37.857,35.714C39.041,35.714 40,36.674 40,37.857C40,39.041 39.041,40 37.857,40L7.857,40C3.518,40 0,36.482 0,32.143L0,2.143C0,0.959 0.959,0 2.143,0Z" clip-rule="evenodd" fill-rule="evenodd" fill="#52C1FF"/>
<path d="M25.194,5.064C25.82,4.907 26.483,5.041 27,5.429L38.429,14C39.375,14.71 39.567,16.053 38.857,17C38.147,17.947 36.804,18.139 35.857,17.429L26.54,10.441L17.656,29.478C17.383,30.063 16.861,30.493 16.235,30.65C15.608,30.807 14.945,30.673 14.428,30.286L8.714,26C7.767,25.29 7.576,23.947 8.286,23C8.996,22.053 10.339,21.861 11.286,22.571L14.888,25.274L23.772,6.237C24.045,5.652 24.568,5.221 25.194,5.064Z" clip-rule="evenodd" fill-rule="evenodd" fill="#52C1FF"/>
</svg>
