<svg width="48" height="58" viewBox="0 0 48 58" fill="none" xmlns="http://www.w3.org/2000/svg" xmlns:xlink="http://www.w3.org/1999/xlink">
<path d="M40.014,19.861C40.014,28.6 32.85,35.721 23.959,35.721L23.959,39.721C35.018,39.721 44.014,30.849 44.014,19.861L40.014,19.861ZM23.959,35.721C15.064,35.721 7.875,28.596 7.875,19.861L3.875,19.861C3.875,30.853 12.903,39.721 23.959,39.721L23.959,35.721ZM7.875,19.861C7.875,11.124 15.038,4 23.959,4L23.959,0C12.873,0 3.875,8.87 3.875,19.861L7.875,19.861ZM23.959,4C32.875,4 40.014,11.12 40.014,19.861L44.014,19.861C44.014,8.874 35.048,0 23.959,0L23.959,4Z" fill="#133BB7"/>
<path d="M17.227,38.107C18.286,37.793 18.89,36.679 18.575,35.62C18.261,34.562 17.148,33.958 16.089,34.272L17.227,38.107ZM2.921,48.226L1.038,47.552L1.038,47.553L2.921,48.226ZM7.324,54.607L7.034,56.586L7.039,56.587L7.324,54.607ZM40.537,54.607L40.807,56.589L40.811,56.588L40.537,54.607ZM44.94,48.226L43.056,48.898L43.06,48.91L44.94,48.226ZM31.764,34.27C30.704,33.96 29.593,34.568 29.283,35.628C28.973,36.688 29.582,37.799 30.642,38.109L31.764,34.27ZM16.089,34.272C9.018,36.369 3.297,41.246 1.038,47.552L4.804,48.901C6.558,44.006 11.146,39.91 17.227,38.107L16.089,34.272ZM1.038,47.553C-0.588,52.096 2.91,55.982 7.034,56.586L7.614,52.628C5.273,52.285 4.257,50.431 4.804,48.9L1.038,47.553ZM7.039,56.587C10.637,57.105 16.112,57.555 23.931,57.555L23.931,53.555C16.257,53.555 10.977,53.113 7.609,52.628L7.039,56.587ZM23.931,57.555C31.759,57.555 37.227,57.076 40.807,56.589L40.268,52.625C36.882,53.086 31.595,53.555 23.931,53.555L23.931,57.555ZM40.811,56.588C44.942,56.019 48.486,52.126 46.819,47.543L43.06,48.91C43.623,50.457 42.597,52.304 40.264,52.626L40.811,56.588ZM46.824,47.555C44.566,41.22 38.843,36.339 31.764,34.27L30.642,38.109C36.715,39.884 41.302,43.976 43.056,48.898L46.824,47.555Z" fill="#133BB7"/>
<path d="M42.014,21.861C43.119,21.861 44.014,20.965 44.014,19.861C44.014,18.756 43.119,17.861 42.014,17.861L42.014,21.861ZM25.959,2C25.959,0.895 25.063,0 23.959,0C22.854,0 21.959,0.895 21.959,2L25.959,2ZM5.875,17.861C4.771,17.861 3.875,18.756 3.875,19.861C3.875,20.965 4.771,21.861 5.875,21.861L5.875,17.861ZM42.014,17.861C33.123,17.861 25.959,10.739 25.959,2L21.959,2C21.959,12.988 30.955,21.861 42.014,21.861L42.014,17.861ZM21.959,2C21.959,10.737 14.796,17.861 5.875,17.861L5.875,21.861C16.96,21.861 25.959,12.991 25.959,2L21.959,2Z" fill="#133BB7"/>
<path d="M30.751,29.242C31.362,28.322 31.111,27.081 30.191,26.47C29.271,25.859 28.029,26.109 27.418,27.029L30.751,29.242ZM20.407,27.02C19.791,26.103 18.548,25.86 17.631,26.476C16.715,27.092 16.471,28.335 17.087,29.251L20.407,27.02ZM27.418,27.029C26.74,28.052 25.43,28.685 23.926,28.685C22.423,28.685 21.1,28.051 20.407,27.02L17.087,29.251C18.679,31.62 21.396,32.685 23.926,32.685C26.456,32.685 29.172,31.619 30.751,29.242L27.418,27.029Z" fill="#133BB7"/>
</svg>

